<svg id="Layer_1" data-name="Layer 1" xmlns="http://www.w3.org/2000/svg" xmlns:xlink="http://www.w3.org/1999/xlink" width="716.38" height="716.38" viewBox="0 0 716.38 716.38"><defs><style>.cls-1{fill:none;}.cls-2{clip-path:url(#clip-path);}.cls-3{fill:#fff;}.cls-4{fill:#3f88c8;}.cls-5{fill:#183c6c;}.cls-6{fill:#cf192e;}.cls-7{fill:#1d1d1b;}.cls-8{fill:#9d9d9d;}.cls-9{fill:#1076bc;}.cls-10{fill:#686868;}</style><clipPath id="clip-path" transform="translate(-16.81 -16.81)"><rect id="SVGID" class="cls-1" x="16.75" y="16.75" width="716.5" height="716.5"/></clipPath></defs><title>bmw_m_logo_freelogovectors.net</title><g class="cls-2"><path class="cls-3" d="M17.34,374.85C17.34,177.4,177.4,17.34,374.85,17.34S732.37,177.4,732.37,374.85,572.31,732.37,374.85,732.37,17.34,572.31,17.34,374.85Z" transform="translate(-16.81 -16.81)"/><path class="cls-4" d="M374.85,17.34c197.46,0,357.52,160.11,357.52,357.63l-.08,1.64H17.42L17.34,375C17.34,177.45,177.4,17.34,374.85,17.34Z" transform="translate(-16.81 -16.81)"/><path class="cls-3" d="M375.73,58.62V694.31C200.27,694.31,58,552,58,376.46S200.27,58.62,375.73,58.62Z" transform="translate(-16.81 -16.81)"/><path class="cls-5" d="M375.73,58.62c175.62,0,318,142.3,318,317.84s-142.37,317.85-318,317.85Z" transform="translate(-16.81 -16.81)"/><path class="cls-3" d="M374.85,97.56c154.12,0,279,124.94,279,279.05H95.81C95.81,222.5,220.74,97.56,374.85,97.56Z" transform="translate(-16.81 -16.81)"/><path class="cls-6" d="M95.81,376.61H653.9c0,153.95-124.93,278.75-279,278.75S95.81,530.56,95.81,376.61Z" transform="translate(-16.81 -16.81)"/><path class="cls-7" d="M606.17,377.49c0,127.27-103.17,230.44-230.44,230.44S145.29,504.76,145.29,377.49,248.45,147.05,375.73,147.05,606.17,250.22,606.17,377.49Z" transform="translate(-16.81 -16.81)"/><path class="cls-8" d="M564.7,258.76l8.68,14.46-59.25,27.55-8.38-14.53,28.85-37.57-43.31,19.67L479.09,257,518.89,205,531,216.72l-22.64,29.07,36.55-16.29,10.25,13.38-24.18,32Z" transform="translate(-16.81 -16.81)"/><path class="cls-8" d="M140.9,377.49C140.9,247.8,246,142.66,375.73,142.66S610.56,247.8,610.56,377.49,505.43,612.32,375.73,612.32,140.9,507.18,140.9,377.49Zm6.2,0c0,126.27,102.36,228.63,228.63,228.63S604.36,503.76,604.36,377.49,502,148.86,375.73,148.86,147.1,251.22,147.1,377.49Z" transform="translate(-16.81 -16.81)"/><path class="cls-8" d="M232.84,374.12c0-79.8,64.76-144.5,144.65-144.5s144.65,64.7,144.65,144.5-64.76,144.5-144.65,144.5S232.84,453.93,232.84,374.12Z" transform="translate(-16.81 -16.81)"/><path class="cls-8" d="M399.12,221l17.31,2.16L414.28,158l-22.16-2.78-15,46.41-15.43-46.1L339,158l-2.46,65.44,17.61-2.78,1.24-42.24L368.79,221h15.66l13.44-42.55Z" transform="translate(-16.81 -16.81)"/><path class="cls-9" d="M381.41,378.4H513.35a132,132,0,0,1-131.94,132Zm-7.84-140.87v132H241.63A132,132,0,0,1,373.57,237.53Z" transform="translate(-16.81 -16.81)"/><path class="cls-3" d="M241.63,378.4H373.57v132A132,132,0,0,1,241.63,378.4ZM381.41,237.53a132,132,0,0,1,131.94,132H381.41Z" transform="translate(-16.81 -16.81)"/><path class="cls-8" d="M269.76,234c-6.87-5.74-15-4.17-22.07.21a15.7,15.7,0,0,0,.09-10.26c-1.53-4-7.71-11.63-15.81-10.31-5,.82-8.62,1.89-14.7,9.17l-31.57,40.1,50.85,40.47,34.71-43.56C278.35,251.38,277.71,241.29,269.76,234Zm-64.1,22.76,19.93-24.66c2-2.44,6.66-3.39,9.4-1.1,3,2.52,3,7.92.83,10.55l-19,24.16Zm52,.48L237.5,282.32l-10.53-9,19.06-25c2.1-2.51,7.28-6,11.94-2.1C261,249,260.12,254.36,257.67,257.27Z" transform="translate(-16.81 -16.81)"/><path class="cls-10" d="M375,733.19A356.66,356.66,0,0,1,174.73,672,359.11,359.11,0,0,1,45,514.42,357.79,357.79,0,0,1,78,174.73,359.11,359.11,0,0,1,235.58,45,357.79,357.79,0,0,1,575.27,78,359.11,359.11,0,0,1,705,235.58a357.79,357.79,0,0,1-33,339.69A359.11,359.11,0,0,1,514.42,705,355.91,355.91,0,0,1,375,733.19Zm0-715C178.23,18.15,18.15,178.23,18.15,375S178.23,731.85,375,731.85,731.85,571.77,731.85,375,571.77,18.15,375,18.15Z" transform="translate(-16.81 -16.81)"/><path class="cls-8" d="M232.84,374.12c0-79.8,64.76-144.5,144.65-144.5s144.65,64.7,144.65,144.5-64.76,144.5-144.65,144.5S232.84,453.93,232.84,374.12Zm9.81,0A134.84,134.84,0,1,0,377.49,239.43,134.76,134.76,0,0,0,242.65,374.12Z" transform="translate(-16.81 -16.81)"/></g></svg>